<?xml version="1.0" encoding="iso-8859-1"?>
<!-- Generator: Adobe Illustrator 17.0.0, SVG Export Plug-In . SVG Version: 6.00 Build 0)  -->
<!DOCTYPE svg PUBLIC "-//W3C//DTD SVG 1.1//EN" "http://www.w3.org/Graphics/SVG/1.1/DTD/svg11.dtd">
<svg version="1.1" id="Capa_1" xmlns="http://www.w3.org/2000/svg" xmlns:xlink="http://www.w3.org/1999/xlink" x="0px" y="0px"
	 width="64px" height="64px" viewBox="0 0 64 64" style="enable-background:new 0 0 64 64;" xml:space="preserve">
<g>
	<path d="M24.32,8.363c-0.42-0.192-0.883-0.308-1.375-0.308c-1.824,0-2.746,2.502-3.303,4.608c-0.512,1.936-0.767,4.383,1.214,4.969
		c0,0,3.592-0.822,5.718-2.716c0.725-0.648,1.654-0.782,2.451-0.224c2.214,1.555,7.365,4.104,16.932,3.601
		c0,0,0.531-3.197,0.332-6.44c-0.332-5.376-5.098-9.522-11.385-9.522C30.092,2.331,25.986,4.833,24.32,8.363z"/>
	<path d="M37.994,30.321c4.37-1.742,7.526-5.871,7.868-10.778c-0.8,0.039-1.597,0.062-2.367,0.062
		c-8.337,0-12.992-2.396-15.026-3.825c-0.43-0.302-0.916-0.232-1.358,0.16c-2.269,2.021-5.951,2.882-6.107,2.918L20.818,18.9
		c0.1,5.246,3.418,9.694,8.059,11.473c-1.45,0.64-12.281,5.722-13.925,15.323c-0.018,0.169-0.059,0.338-0.074,0.503
		c-0.129,1.345,0.266,2.618,1.11,3.584c0.757,0.864,1.64,1.4,2.599,1.678c0.498,0.154,1.018,0.233,1.553,0.253v5.954
		c0,1.104,0.895,2,2,2h21.842c1.104,0,2-0.896,2-2v-5.963c0.092,0.004,0.185,0.021,0.275,0.021c1.619,0,3.121-0.554,4.311-1.913
		c0.846-0.966,1.24-2.238,1.111-3.584c0,0-0.027-0.342-0.061-0.51C49.933,35.78,38.756,30.662,37.994,30.321z M43.451,44.73
		c-0.723-0.422-1.47-0.931-2.116-1.468c-1.258-1.047-3.128-0.88-4.179,0.377c-1.049,1.257-0.885,3.123,0.37,4.175
		c1.739,1.458,3.837,2.744,5.925,3.416v1.945l-9.955,3.896l-9.955-3.896v-2.054c1.976-0.698,3.943-1.929,5.589-3.308
		c1.255-1.052,1.419-2.918,0.369-4.175c-1.05-1.257-2.921-1.424-4.178-0.377c-0.546,0.455-1.165,0.888-1.78,1.266v-6.246
		l3.494,1.509c0.002-0.001,0.002-0.003,0.004-0.003l6.457,2.787l9.955-4.298V44.73z"/>
</g>
</svg>
