<?xml version="1.0" encoding="utf-8"?>
<!-- Generator: Adobe Illustrator 16.0.4, SVG Export Plug-In . SVG Version: 6.00 Build 0)  -->
<!DOCTYPE svg PUBLIC "-//W3C//DTD SVG 1.1//EN" "http://www.w3.org/Graphics/SVG/1.1/DTD/svg11.dtd">
<svg version="1.1" id="Layer_1" xmlns="http://www.w3.org/2000/svg" xmlns:xlink="http://www.w3.org/1999/xlink" x="0px" y="0px"
	 width="800px" height="800px" viewBox="0 0 800 800" enable-background="new 0 0 800 800" xml:space="preserve">
<path d="M785.2,406.3l-42.8,52L400,176.7L57.6,458.3l-42.8-52L400,89.5L785.2,406.3z M400.1,241.6l248.4,206V640.2v59V729.6H151.4
	V698.4v-58.2V446.8L400.1,241.6z M420.4,459c-1.726,1.266-20.4,18-20.4,18s-18.699-16.801-20.4-18c-25.283-17.824-52.5-19-73.3-8.1
	c-20.5,9.899-32.8,31.699-34.3,56.8c-0.1,0.899-0.1,1.8-0.1,2.7c-0.3,19.1,7.2,36.8,18,52.5c4.8,7,9.9,13.6,15.2,20
	c7.8,9.899,94.85,91.767,94.85,91.767S487.1,592.7,494.9,582.9c5.3-6.4,10.399-13.101,15.199-20c10.801-15.801,18.301-33.4,18-52.5
	c0-0.9,0-1.801-0.1-2.7c-1.5-25.101-13.8-47-34.3-56.8C472.9,440,445.344,440.704,420.4,459z"/>
</svg>
