<?xml version="1.0" encoding="utf-8"?>
<!-- Generator: Adobe Illustrator 16.0.4, SVG Export Plug-In . SVG Version: 6.00 Build 0)  -->
<!DOCTYPE svg PUBLIC "-//W3C//DTD SVG 1.1//EN" "http://www.w3.org/Graphics/SVG/1.1/DTD/svg11.dtd">
<svg version="1.1" id="Layer_1" xmlns="http://www.w3.org/2000/svg" xmlns:xlink="http://www.w3.org/1999/xlink" x="0px" y="0px"
	  width="800px" height="800px" viewBox="0 0 800 800" enable-background="new 0 0 800 800" xml:space="preserve">
<g>	  
<path d="M171.4,392l-28.6-34.7L400,145.8l257.2,211.5L628.6,392L400,204L171.4,392z M670.5,511.4h-74v71.5h-392v-71.5h-75
	L25.5,654.3H67c1.9,0,3.8,0.101,5.7,0.101c92.1,0,184.1,0,276.2,0c4.9,0,9.8,0,14.6,0h85c0.9,0,1.7,0,2.6,0
	c92.101,0,184.101,0.1,276.2,0c1.9,0,3.8,0,5.7-0.101h41.5L670.5,511.4z M400,247.4l166,137.5V510v42.9v4.6H234v-5.1V510V384.4
	L400,247.4z M397.5,434H336v57.5h61.5V434z M397.5,369H336v57.5h61.5V369z M405.5,426.5H467V369h-61.5V426.5z M405.5,491.5H467V434
	h-61.5V491.5z"/>
</g>
</svg>
